<?xml version="1.0" encoding="UTF-8" standalone="no"?>
<svg
   xmlns:dc="http://purl.org/dc/elements/1.1/"
   xmlns:cc="http://creativecommons.org/ns#"
   xmlns:rdf="http://www.w3.org/1999/02/22-rdf-syntax-ns#"
   xmlns:svg="http://www.w3.org/2000/svg"
   xmlns="http://www.w3.org/2000/svg"
   xmlns:xlink="http://www.w3.org/1999/xlink"
   xmlns:sodipodi="http://sodipodi.sourceforge.net/DTD/sodipodi-0.dtd"
   xmlns:inkscape="http://www.inkscape.org/namespaces/inkscape"
   inkscape:version="1.0 (4035a4fb49, 2020-05-01)"
   sodipodi:docname="convert-icon.svg"
   id="svg6"
   version="1.1"
   width="512pt"
   viewBox="0 -8 512.00031 512"
   height="512pt">
  <metadata
     id="metadata12">
    <rdf:RDF>
      <cc:Work
         rdf:about="">
        <dc:format>image/svg+xml</dc:format>
        <dc:type
           rdf:resource="http://purl.org/dc/dcmitype/StillImage" />
      </cc:Work>
    </rdf:RDF>
  </metadata>
  <defs
     id="defs10">
    <linearGradient
       id="linearGradient849"
       inkscape:collect="always">
      <stop
         id="stop845"
         offset="0"
         style="stop-color:#dc47a7;stop-opacity:1" />
      <stop
         id="stop847"
         offset="1"
         style="stop-color:#4375bd;stop-opacity:1" />
    </linearGradient>
    <linearGradient
       id="linearGradient841"
       inkscape:collect="always">
      <stop
         id="stop837"
         offset="0"
         style="stop-color:#dc47a7;stop-opacity:1" />
      <stop
         id="stop839"
         offset="1"
         style="stop-color:#4375bd;stop-opacity:1" />
    </linearGradient>
    <linearGradient
       gradientUnits="userSpaceOnUse"
       y2="49.872372"
       x2="88.827354"
       y1="450.94135"
       x1="414.52765"
       id="linearGradient843"
       xlink:href="#linearGradient841"
       inkscape:collect="always" />
    <linearGradient
       gradientUnits="userSpaceOnUse"
       y2="44.488892"
       x2="78.060402"
       y1="452.2872"
       x1="426.64047"
       id="linearGradient851"
       xlink:href="#linearGradient849"
       inkscape:collect="always" />
  </defs>
  <sodipodi:namedview
     inkscape:current-layer="svg6"
     inkscape:window-maximized="1"
     inkscape:window-y="-8"
     inkscape:window-x="-8"
     inkscape:cy="410.7118"
     inkscape:cx="325.5655"
     inkscape:zoom="0.55726091"
     showgrid="false"
     id="namedview8"
     inkscape:window-height="705"
     inkscape:window-width="1366"
     inkscape:pageshadow="2"
     inkscape:pageopacity="0"
     guidetolerance="10"
     gridtolerance="10"
     objecttolerance="10"
     borderopacity="1"
     bordercolor="#666666"
     pagecolor="#ffffff" />
  <path
     style="fill-opacity:1;fill:url(#linearGradient851)"
     id="path2"
     d="m306.753906 186.6875h-93.34375c-7.773437 0-14.261718 5.945312-14.941406 13.691406l-8.167969 93.347656c-.367187 4.191407 1.042969 8.339844 3.882813 11.441407 2.84375 3.101562 6.855468 4.863281 11.0625 4.863281h93.34375c7.777344 0 14.265625-5.941406 14.945312-13.691406l8.164063-93.34375c.367187-4.191406-1.042969-8.339844-3.882813-11.441406-2.84375-3.101563-6.855468-4.867188-11.0625-4.867188zm-21.910156 93.347656h-63.230469l5.542969-63.347656h63.230469zm0 0" />
  <path
     style="stroke-width:0.99975027;stroke-miterlimit:4;stroke-dasharray:none;fill-opacity:1;fill:url(#linearGradient843)"
     id="path4"
     d="m454.550781 216.6875c14.160157 0 27.886719-5.453125 38.652344-15.351562 10.75-9.882813 17.351563-23.109376 18.585937-37.234376 1.28125-14.65625-3.304687-28.503906-12.914062-38.992187-9.578125-10.453125-22.902344-16.207031-37.550781-16.207031h-53.605469l4.695312-53.699219c1.285157-14.660156-3.300781-28.507813-12.914062-38.996094-9.574219-10.449219-22.898438-16.207031-37.515625-16.207031-14.160156 0-27.886719 5.453125-38.652344 15.351562-10.75 9.882813-17.351562 23.105469-18.585937 37.234376l-4.929688 56.316406h-63.230468l4.699218-53.703125c1.28125-14.65625-3.304687-28.503907-12.914062-38.996094-9.578125-10.449219-22.902344-16.203125-37.519532-16.203125-14.160156 0-27.886718 5.449219-38.652343 15.347656-10.75 9.886719-17.347657 23.109375-18.585938 37.238282l-4.925781 56.3125h-56.265625c-14.160156 0-27.886719 5.453124-38.652344 15.351562-10.75 9.886719-17.351562 23.109375-18.585937 37.238281-1.28125 14.65625 3.308594 28.507813 12.917968 38.996094 9.578126 10.449219 22.898438 16.203125 37.515626 16.203125h53.636718l-5.542968 63.347656h-56.261719c-14.160157 0-27.886719 5.449219-38.652344 15.347656-10.75 9.886719-17.347656 23.109376-18.585937 37.234376-1.28125 14.660156 3.304687 28.507812 12.917968 38.996093 9.574219 10.449219 22.898438 16.203125 37.515625 16.203125h53.640625l-4.699218 53.703125c-1.28125 14.65625 3.304687 28.503907 12.917968 38.996094 9.574219 10.449219 22.898438 16.203125 37.515625 16.203125 14.160157 0 27.886719-5.449219 38.648438-15.347656 10.753906-9.886719 17.355469-23.109375 18.589843-37.234375.007813-.074219.015626-.148438.019532-.222657l4.90625-56.097656 63.230468.003906-4.695312 53.695313c-1.285156 14.660156 3.304688 28.507813 12.914062 38.996094 9.574219 10.453125 22.898438 16.207031 37.515626 16.207031 14.160156 0 27.886718-5.449219 38.652343-15.347656 10.75-9.886719 17.351563-23.109375 18.589844-37.238282.003906-.042968.007813-.089843.011719-.136718l4.914062-56.175782h56.265625c.117188 0 .234375 0 .351563-.003906 14.035156-.089844 27.625-5.53125 38.300781-15.347656 10.75-9.886719 17.351563-23.109375 18.585937-37.234375 1.28125-14.65625-3.304687-28.503906-12.917968-38.996094-9.574219-10.449219-22.898438-16.203125-37.546875-16.203125h-53.609375l5.542968-63.347656zm-89.238281 88.480469c2.84375 3.101562 6.855469 4.867187 11.0625 4.867187h70.007812c6.105469 0 11.574219 2.296875 15.402344 6.472656 3.859375 4.214844 5.6875 9.933594 5.148438 16.109376-1.195313 13.660156-13.722656 25.199218-27.355469 25.199218-.097656 0-.195313.003906-.296875.003906h-69.710938c-7.777343 0-14.265624 5.945313-14.941406 13.691407l-6.125 69.976562c0 .042969-.003906.082031-.007812.121094-1.246094 13.621094-13.746094 25.109375-27.347656 25.109375-6.105469 0-11.574219-2.296875-15.398438-6.472656-3.859375-4.214844-5.691406-9.9375-5.148438-16.113282l6.125-70.003906c.367188-4.191406-1.042968-8.339844-3.882812-11.441406-2.84375-3.101562-6.855469-4.867188-11.0625-4.867188l-93.34375-.003906c-7.777344 0-14.265625 5.945313-14.941406 13.695313l-6.121094 69.976562c-.007812.0625-.011719.121094-.015625.179688-1.273437 13.59375-13.761719 25.054687-27.339844 25.054687-6.105469 0-11.574219-2.300781-15.402343-6.476562-3.859376-4.210938-5.6875-9.933594-5.144532-16.113282l6.125-70.007812c.367188-4.1875-1.042968-8.339844-3.882812-11.441406-2.84375-3.097656-6.855469-4.863282-11.0625-4.863282h-70.007813c-6.105469 0-11.574219-2.300781-15.398437-6.472656-3.859375-4.214844-5.691406-9.9375-5.148438-16.113281 1.195313-13.660156 13.71875-25.199219 27.351563-25.199219h70.007812c7.777344 0 14.265625-5.945312 14.941407-13.691406l8.167968-93.347656c.367188-4.1875-1.042968-8.339844-3.882812-11.441406-2.839844-3.097657-6.855469-4.863282-11.058594-4.863282h-70.007812c-6.105469 0-11.574219-2.300781-15.398438-6.472656-3.859375-4.214844-5.691406-9.9375-5.148438-16.113281 1.195313-13.664063 13.722657-25.203125 27.351563-25.203125h70.007813c7.777343 0 14.265624-5.945313 14.941406-13.691406l6.128906-70.007813c1.195312-13.660156 13.71875-25.199219 27.351562-25.199219 6.105469 0 11.574219 2.296875 15.398438 6.472656 3.859375 4.210938 5.691406 9.933594 5.148438 16.109376l-6.125 70.007812c-.367188 4.191406 1.042968 8.34375 3.882812 11.441406 2.839844 3.101563 6.855469 4.867188 11.058594 4.867188h93.34375c7.777344 0 14.265625-5.945313 14.945312-13.691406l6.125-70.007813c1.195313-13.660156 13.722656-25.199219 27.355469-25.199219 6.101563 0 11.574219 2.296875 15.398437 6.472656 3.859376 4.210938 5.6875 9.933594 5.148438 16.109376l-6.125 70.007812c-.367188 4.191406 1.042969 8.339844 3.882812 11.441406 2.839844 3.101563 6.851563 4.867188 11.058594 4.867188h70.011719c6.101563 0 11.570313 2.300781 15.394531 6.472656 3.863282 4.214844 5.691406 9.9375 5.148438 16.113281-1.191406 13.664063-13.71875 25.203125-27.351563 25.203125h-70.011719c-7.773437 0-14.261718 5.945313-14.941406 13.691406l-8.167968 93.347657c-.367188 4.1875 1.042968 8.335937 3.882812 11.4375zm0 0" />
</svg>
