<?xml version="1.0" encoding="UTF-8" standalone="no"?>
<svg
   xmlns:dc="http://purl.org/dc/elements/1.1/"
   xmlns:cc="http://creativecommons.org/ns#"
   xmlns:rdf="http://www.w3.org/1999/02/22-rdf-syntax-ns#"
   xmlns:svg="http://www.w3.org/2000/svg"
   xmlns="http://www.w3.org/2000/svg"
   xmlns:xlink="http://www.w3.org/1999/xlink"
   xmlns:sodipodi="http://sodipodi.sourceforge.net/DTD/sodipodi-0.dtd"
   xmlns:inkscape="http://www.inkscape.org/namespaces/inkscape"
   version="1.0"
   width="1200px"
   height="1200px"
   viewBox="0 0 12000 12000"
   preserveAspectRatio="xMidYMid meet"
   id="svg65"
   sodipodi:docname="mainLogoLtr.svg"
   inkscape:version="1.0 (4035a4fb49, 2020-05-01)">
  <metadata
     id="metadata71">
    <rdf:RDF>
      <cc:Work
         rdf:about="">
        <dc:format>image/svg+xml</dc:format>
        <dc:type
           rdf:resource="http://purl.org/dc/dcmitype/StillImage" />
        <dc:title />
      </cc:Work>
    </rdf:RDF>
  </metadata>
  <defs
     id="defs69">
    <linearGradient
       inkscape:collect="always"
       id="linearGradient4723">
      <stop
         style="stop-color:#d63384;stop-opacity:1"
         offset="0"
         id="stop4719" />
      <stop
         style="stop-color:#dc3545;stop-opacity:1"
         offset="1"
         id="stop4721" />
    </linearGradient>
    <linearGradient
       inkscape:collect="always"
       id="linearGradient4701">
      <stop
         style="stop-color:#0d6efd;stop-opacity:1"
         offset="0"
         id="stop4697" />
      <stop
         style="stop-color:#7e36f4;stop-opacity:1"
         offset="1"
         id="stop4699" />
    </linearGradient>
    <linearGradient
       inkscape:collect="always"
       id="linearGradient4562">
      <stop
         style="stop-color:#000000;stop-opacity:1;"
         offset="0"
         id="stop4558" />
      <stop
         style="stop-color:#000000;stop-opacity:0;"
         offset="1"
         id="stop4560" />
    </linearGradient>
    <linearGradient
       inkscape:collect="always"
       xlink:href="#linearGradient4562"
       id="linearGradient4564"
       x1="2349.6748"
       y1="3924.9536"
       x2="2502.3235"
       y2="3809.9443"
       gradientUnits="userSpaceOnUse" />
    <linearGradient
       gradientTransform="matrix(52.619813,0,0,52.619813,-11640.137,-19346.208)"
       inkscape:collect="always"
       xlink:href="#linearGradient4701"
       id="linearGradient4689"
       x1="240.05576"
       y1="378.41544"
       x2="228.41542"
       y2="386.0827"
       gradientUnits="userSpaceOnUse" />
    <linearGradient
       inkscape:collect="always"
       xlink:href="#linearGradient4723"
       id="linearGradient4725"
       x1="242.42566"
       y1="376.67285"
       x2="227.36989"
       y2="372.83923"
       gradientUnits="userSpaceOnUse" />
  </defs>
  <sodipodi:namedview
     inkscape:document-rotation="0"
     pagecolor="#ffffff"
     bordercolor="#666666"
     borderopacity="1"
     objecttolerance="10"
     gridtolerance="10"
     guidetolerance="10"
     inkscape:pageopacity="0"
     inkscape:pageshadow="2"
     inkscape:window-width="1366"
     inkscape:window-height="705"
     id="namedview67"
     showgrid="false"
     inkscape:lockguides="true"
     inkscape:snap-intersection-paths="true"
     inkscape:object-paths="true"
     inkscape:snap-smooth-nodes="true"
     inkscape:zoom="0.44833332"
     inkscape:cx="790.12568"
     inkscape:cy="665.26465"
     inkscape:window-x="-8"
     inkscape:window-y="-8"
     inkscape:window-maximized="1"
     inkscape:current-layer="g4624" />
  <g
     id="g4624">
    <g
       transform="matrix(52.619813,0,0,52.619813,-116401.37,-193462.08)"
       id="g854">
      <g
         aria-label="e"
         id="text4611"
         style="font-style:normal;font-variant:normal;font-weight:normal;font-stretch:normal;font-size:400px;line-height:1.25;font-family:Arial;-inkscape-font-specification:Arial;fill:#000000;fill-opacity:1;stroke:none;stroke-width:10"
         transform="translate(-7.6672863,8.3643123)">
        <path
           sodipodi:nodetypes="cccccccccccscscccssccccssscscccccsccscccccccccccccccccccccccccccscccccscccscsc"
           transform="matrix(10,0,0,10,7.6672863,-8.3643123)"
           d="m 233.74219,390.15039 c -0.0371,-0.004 -0.0743,-0.008 -0.11133,-0.0117 -0.0789,-0.01 -0.15772,-0.021 -0.23633,-0.0332 -0.0789,-0.0112 -0.15774,-0.0236 -0.23633,-0.0371 -0.0784,-0.0145 -0.15648,-0.0301 -0.23437,-0.0469 -0.0777,-0.0164 -0.15521,-0.034 -0.23242,-0.0527 -0.0778,-0.019 -0.15525,-0.0392 -0.23243,-0.0605 -0.0765,-0.021 -0.15266,-0.0431 -0.22851,-0.0664 -0.0765,-0.0236 -0.15271,-0.0483 -0.22852,-0.0742 -0.0752,-0.0256 -0.15013,-0.0523 -0.22461,-0.0801 -0.0746,-0.0275 -0.14885,-0.0562 -0.22265,-0.0859 -0.074,-0.0301 -0.1476,-0.0614 -0.22071,-0.0937 -0.0727,-0.0321 -0.14501,-0.0653 -0.21679,-0.0996 -0.0721,-0.0347 -0.14376,-0.0706 -0.21485,-0.10742 -0.0709,-0.0367 -0.14117,-0.0745 -0.21093,-0.11328 -0.0702,-0.0387 -0.13991,-0.0784 -0.20899,-0.11914 -0.0683,-0.0407 -0.13602,-0.0823 -0.20312,-0.125 -0.0677,-0.0426 -0.13476,-0.0862 -0.20118,-0.13086 -0.0664,-0.0446 -0.13217,-0.0902 -0.19726,-0.13672 -0.0651,-0.0466 -0.1296,-0.0941 -0.19336,-0.14258 -0.0632,-0.0492 -0.12573,-0.0993 -0.1875,-0.15039 -0.0619,-0.0505 -0.12314,-0.10195 -0.18359,-0.15429 -0.0607,-0.0518 -0.12056,-0.10459 -0.17969,-0.15821 -0.0594,-0.0545 -0.118,-0.1098 -0.17578,-0.16601 -0.0575,-0.0558 -0.11411,-0.11244 -0.16992,-0.16992 -0.0555,-0.0571 -0.11022,-0.11508 -0.16407,-0.17383 -0.0542,-0.0591 -0.10764,-0.119 -0.16015,-0.17969 -0.0523,-0.0611 -0.10377,-0.12294 -0.1543,-0.18555 -0.0504,-0.0624 -0.0999,-0.12557 -0.14844,-0.18945 -0.0491,-0.0637 -0.0973,-0.12819 -0.14453,-0.19336 -0.0465,-0.0651 -0.0921,-0.13084 -0.13672,-0.19727 -0.0452,-0.0664 -0.0895,-0.13346 -0.13281,-0.20117 -0.0427,-0.0677 -0.0843,-0.13611 -0.125,-0.20508 -0.0414,-0.0697 -0.0818,-0.14002 -0.12109,-0.21093 -0.0388,-0.0697 -0.0765,-0.14007 -0.11329,-0.21094 -0.0369,-0.0717 -0.0727,-0.144 -0.10742,-0.2168 -0.0349,-0.0724 -0.0688,-0.14533 -0.10156,-0.21875 -0.033,-0.0737 -0.0649,-0.14796 -0.0957,-0.22265 -0.0304,-0.0744 -0.0597,-0.14931 -0.0879,-0.22461 -0.0284,-0.0751 -0.0558,-0.15064 -0.082,-0.22657 -0.0259,-0.0765 -0.0506,-0.15327 -0.0742,-0.23046 -0.0246,-0.0765 -0.048,-0.1533 -0.0703,-0.23047 -0.0213,-0.0778 -0.0415,-0.15596 -0.0605,-0.23438 -0.0194,-0.0785 -0.0376,-0.15729 -0.0547,-0.23633 -0.0174,-0.0785 -0.0337,-0.15731 -0.0488,-0.23632 -0.0148,-0.0792 -0.0285,-0.15866 -0.041,-0.23829 -0.0129,-0.0793 -0.0246,-0.15868 -0.0352,-0.23828 -0.0103,-0.0799 -0.0194,-0.16002 -0.0273,-0.24023 -0.008,-0.0806 -0.0142,-0.16137 -0.0195,-0.24219 -0.006,-0.0807 -0.0103,-0.1614 -0.0137,-0.24219 -0.003,-0.08 -0.005,-0.16013 -0.006,-0.24023 -8.4e-4,-0.0325 -0.001,-0.0651 -0.002,-0.0977 1.3e-4,-0.0807 0.001,-0.16148 0.004,-0.24218 0.003,-0.0808 0.007,-0.16152 0.0117,-0.24219 0.005,-0.0802 0.0106,-0.16025 0.0176,-0.24024 0.007,-0.0808 0.0144,-0.16157 0.0234,-0.24218 0.009,-0.0796 0.0197,-0.15902 0.0312,-0.23829 0.0119,-0.0803 0.0249,-0.16035 0.0391,-0.24023 0.0138,-0.079 0.0288,-0.15778 0.0449,-0.23633 0.0164,-0.079 0.034,-0.15782 0.0527,-0.23633 0.0184,-0.0784 0.0379,-0.15654 0.0586,-0.23437 0.021,-0.0778 0.0431,-0.15528 0.0664,-0.23242 0.023,-0.0772 0.0471,-0.15401 0.0723,-0.23047 0.0256,-0.0766 0.0523,-0.15275 0.0801,-0.22852 0.0275,-0.0759 0.0562,-0.15147 0.0859,-0.22656 0.0295,-0.0747 0.0601,-0.1489 0.0918,-0.22266 0.0321,-0.0741 0.0653,-0.14763 0.0996,-0.2207 0.0335,-0.0728 0.068,-0.14505 0.10351,-0.2168 0.0361,-0.0715 0.0732,-0.14248 0.11133,-0.21289 0.0387,-0.0709 0.0784,-0.14122 0.11914,-0.21093 0.04,-0.0696 0.081,-0.13863 0.12305,-0.20703 0.042,-0.0684 0.0849,-0.13606 0.1289,-0.20313 0.006,-0.008 0.0117,-0.0169 0.0176,-0.0254 l -3.91211,0.0137 c -0.0937,0.71544 -0.24698,1.37541 -0.24698,2.17234 0,3.37239 0.82381,5.9468 2.59464,7.8218 1.78385,1.86198 4.19271,2.79297 7.22656,2.79297 0.0858,0 0.14969,-0.0298 0.23438,-0.0312 z"
           style="font-style:normal;font-variant:normal;font-weight:normal;font-stretch:normal;font-family:Arial;-inkscape-font-specification:Arial;stroke-width:1"
           id="path4635" />
        <path
           transform="matrix(10,0,0,10,7.6672863,-8.3643123)"
           d="m 242.56641,383.47461 a 8.1203529,8.2249077 0 0 1 -0.0332,0.17773 8.1203529,8.2249077 0 0 1 -0.0234,0.10352 c 0.03,-0.10051 0.0914,-0.1707 0.11914,-0.27344 z"
           style="font-style:normal;font-variant:normal;font-weight:normal;font-stretch:normal;font-family:Arial;-inkscape-font-specification:Arial;stroke-width:1"
           id="path4656" />
        <path
           transform="matrix(0.19004248,0,0,0.19004248,2219.7878,3668.2371)"
           d="M 936.49609 497.53711 L 936.49609 496.70117 L 936.40625 496.70117 C 936.43789 496.97771 936.46483 497.26 936.49609 497.53711 z "
           style="font-style:normal;font-variant:normal;font-weight:normal;font-stretch:normal;font-family:Arial;-inkscape-font-specification:Arial;fill:url(#linearGradient4689);fill-opacity:1;stroke-width:52.6198"
           id="path4654" />
        <path
           transform="matrix(0.19004248,0,0,0.19004248,2219.7878,3668.2371)"
           d="M 904.33008 371.00977 C 919.10357 406.67016 930.73796 447.16711 936.40625 496.70117 L 936.49609 496.70117 L 936.49609 497.53711 C 936.95698 501.62167 937.45681 505.64606 937.83398 509.85742 L 936.49609 509.85742 L 936.49609 511.47852 L 408.31836 511.47852 L 408.31836 511.29688 L 349.04883 511.50391 A 427.29145 432.79311 0 0 0 348.12109 512.83984 A 427.29145 432.79311 0 0 0 341.33984 523.5293 A 427.29145 432.79311 0 0 0 334.86523 534.42383 A 427.29145 432.79311 0 0 0 328.5957 545.52148 A 427.29145 432.79311 0 0 0 322.73633 556.72461 A 427.29145 432.79311 0 0 0 317.29102 568.13281 A 427.29145 432.79311 0 0 0 312.04883 579.74609 A 427.29145 432.79311 0 0 0 307.21875 591.46094 A 427.29145 432.79311 0 0 0 302.69922 603.38281 A 427.29145 432.79311 0 0 0 298.48438 615.4082 A 427.29145 432.79311 0 0 0 294.67969 627.53516 A 427.29145 432.79311 0 0 0 291.18555 639.76562 A 427.29145 432.79311 0 0 0 288.10156 652.09766 A 427.29145 432.79311 0 0 0 285.32812 664.5332 A 427.29145 432.79311 0 0 0 282.9668 676.96875 A 427.29145 432.79311 0 0 0 280.9082 689.60938 A 427.29145 432.79311 0 0 0 279.26758 702.14844 A 427.29145 432.79311 0 0 0 278.03516 714.89258 A 427.29145 432.79311 0 0 0 277.10938 727.5332 A 427.29145 432.79311 0 0 0 276.49414 740.27734 A 427.29145 432.79311 0 0 0 276.2832 753.02148 A 427.29145 432.79311 0 0 0 276.38867 758.16211 A 427.29145 432.79311 0 0 0 276.70508 770.80273 A 427.29145 432.79311 0 0 0 277.42578 783.54688 A 427.29145 432.79311 0 0 0 278.45117 796.29102 A 427.29145 432.79311 0 0 0 279.88867 808.93164 A 427.29145 432.79311 0 0 0 281.74023 821.4707 A 427.29145 432.79311 0 0 0 283.89844 834.00781 A 427.29145 432.79311 0 0 0 286.46484 846.44336 A 427.29145 432.79311 0 0 0 289.34375 858.87891 A 427.29145 432.79311 0 0 0 292.52734 871.21289 A 427.29145 432.79311 0 0 0 296.22656 883.33984 A 427.29145 432.79311 0 0 0 300.13086 895.4668 A 427.29145 432.79311 0 0 0 304.44531 907.38867 A 427.29145 432.79311 0 0 0 309.07031 919.20703 A 427.29145 432.79311 0 0 0 314.10742 930.92383 A 427.29145 432.79311 0 0 0 319.45117 942.43359 A 427.29145 432.79311 0 0 0 325.10352 953.8418 A 427.29145 432.79311 0 0 0 331.06445 964.94141 A 427.29145 432.79311 0 0 0 337.43555 976.04102 A 427.29145 432.79311 0 0 0 344.01367 986.83203 A 427.29145 432.79311 0 0 0 351.00195 997.41797 A 427.29145 432.79311 0 0 0 358.19727 1007.7969 A 427.29145 432.79311 0 0 0 365.80078 1017.9727 A 427.29145 432.79311 0 0 0 373.61328 1027.9414 A 427.29145 432.79311 0 0 0 381.73242 1037.7051 A 427.29145 432.79311 0 0 0 390.1582 1047.1602 A 427.29145 432.79311 0 0 0 398.79297 1056.3066 A 427.29145 432.79311 0 0 0 407.73242 1065.248 A 427.29145 432.79311 0 0 0 416.98242 1073.9824 A 427.29145 432.79311 0 0 0 426.4375 1082.3086 A 427.29145 432.79311 0 0 0 436.09766 1090.4277 A 427.29145 432.79311 0 0 0 445.96484 1098.3398 A 427.29145 432.79311 0 0 0 456.13867 1105.8438 A 427.29145 432.79311 0 0 0 466.51953 1113.0371 A 427.29145 432.79311 0 0 0 477.10547 1119.9238 A 427.29145 432.79311 0 0 0 487.79297 1126.5 A 427.29145 432.79311 0 0 0 498.79102 1132.7695 A 427.29145 432.79311 0 0 0 509.88867 1138.7305 A 427.29145 432.79311 0 0 0 521.19531 1144.3828 A 427.29145 432.79311 0 0 0 532.60156 1149.623 A 427.29145 432.79311 0 0 0 544.2168 1154.5547 A 427.29145 432.79311 0 0 0 555.93164 1159.0742 A 427.29145 432.79311 0 0 0 567.75 1163.2891 A 427.29145 432.79311 0 0 0 579.77539 1167.1934 A 427.29145 432.79311 0 0 0 591.79883 1170.6875 A 427.29145 432.79311 0 0 0 604.0293 1173.8711 A 427.29145 432.79311 0 0 0 616.25977 1176.6445 A 427.29145 432.79311 0 0 0 628.5918 1179.1113 A 427.29145 432.79311 0 0 0 641.02734 1181.0645 A 427.29145 432.79311 0 0 0 653.46289 1182.8105 A 427.29145 432.79311 0 0 0 659.32227 1183.4277 C 780.00949 1181.3124 880.78871 1152.0439 959.41797 1092.5762 C 1037.0048 1033.8967 1089.6153 950.9177 1120.6699 846.94727 A 427.29145 432.79311 0 0 0 1121.9023 841.5 A 427.29145 432.79311 0 0 0 1123.6484 832.14844 L 935.7793 808.92188 C 907.68768 887.02967 869.66203 943.89704 821.70117 979.52539 C 773.74032 1015.1532 715.84377 1032.9668 648.01367 1032.9668 C 556.88826 1032.9668 480.83785 1001.1076 419.85938 937.38867 C 358.88038 873.66924 324.96543 781.85722 318.11328 661.95508 L 1121.4004 661.96094 A 427.29145 432.79311 0 0 0 1120.875 659.49414 A 427.29145 432.79311 0 0 0 1117.8965 647.16016 A 427.29145 432.79311 0 0 0 1114.707 634.82812 A 427.29145 432.79311 0 0 0 1111.1094 622.59766 A 427.29145 432.79311 0 0 0 1107.0996 610.57422 A 427.29145 432.79311 0 0 0 1102.7832 598.54883 A 427.29145 432.79311 0 0 0 1098.1582 586.73047 A 427.29145 432.79311 0 0 0 1093.123 575.11719 A 427.29145 432.79311 0 0 0 1087.7793 563.50391 A 427.29145 432.79311 0 0 0 1082.127 552.19922 A 427.29145 432.79311 0 0 0 1076.166 540.99609 A 427.29145 432.79311 0 0 0 1069.793 530 A 427.29145 432.79311 0 0 0 1063.2168 519.20898 A 427.29145 432.79311 0 0 0 1056.2285 508.62305 A 427.29145 432.79311 0 0 0 1049.0332 498.14062 A 427.29145 432.79311 0 0 0 1041.4277 487.96484 A 427.29145 432.79311 0 0 0 1033.6172 478.09961 A 427.29145 432.79311 0 0 0 1025.498 468.33594 A 427.29145 432.79311 0 0 0 1017.0703 458.88086 A 427.29145 432.79311 0 0 0 1008.4375 449.63086 A 427.29145 432.79311 0 0 0 999.49609 440.68945 A 427.29145 432.79311 0 0 0 990.24805 432.05664 A 427.29145 432.79311 0 0 0 980.79102 423.62891 A 427.29145 432.79311 0 0 0 971.13086 415.50977 A 427.29145 432.79311 0 0 0 961.26562 407.69922 A 427.29145 432.79311 0 0 0 951.08984 400.19727 A 427.29145 432.79311 0 0 0 940.71094 393.00391 A 427.29145 432.79311 0 0 0 930.22656 386.01367 A 427.29145 432.79311 0 0 0 919.4375 379.4375 A 427.29145 432.79311 0 0 0 908.43945 373.16797 A 427.29145 432.79311 0 0 0 904.33008 371.00977 z "
           style="font-style:normal;font-variant:normal;font-weight:normal;font-stretch:normal;font-family:Arial;-inkscape-font-specification:Arial;fill:url(#linearGradient4689);fill-opacity:1;stroke-width:52.6198"
           id="path871" />
        <path
           transform="matrix(10,0,0,10,7.6672863,-8.3643123)"
           d="m 233.3125,368.50195 c -2.86458,0 -5.19531,0.96354 -6.99219,2.89063 -1.30198,1.39632 -1.96563,3.34778 -2.32422,5.56445 l 3.76758,-1.00586 c 0.28322,-1.14246 0.72539,-2.16632 1.50586,-2.9375 1.10677,-1.08072 2.46745,-1.62109 4.08203,-1.62109 1.78386,0 3.23568,0.67708 4.35547,2.03125 0.287,0.34336 0.49317,0.80859 0.69141,1.28711 a 8.1203529,8.2249077 0 0 1 0.0781,0.041 8.1203529,8.2249077 0 0 1 0.20899,0.11914 8.1203529,8.2249077 0 0 1 0.20507,0.125 8.1203529,8.2249077 0 0 1 0.19922,0.13282 8.1203529,8.2249077 0 0 1 0.19727,0.13671 8.1203529,8.2249077 0 0 1 0.19336,0.14258 8.1203529,8.2249077 0 0 1 0.1875,0.14844 8.1203529,8.2249077 0 0 1 0.18359,0.1543 8.1203529,8.2249077 0 0 1 0.17969,0.16015 8.1203529,8.2249077 0 0 1 0.17578,0.16407 8.1203529,8.2249077 0 0 1 0.16992,0.16992 8.1203529,8.2249077 0 0 1 0.16407,0.17578 8.1203529,8.2249077 0 0 1 0.16015,0.17969 8.1203529,8.2249077 0 0 1 0.1543,0.18554 8.1203529,8.2249077 0 0 1 0.14844,0.1875 8.1203529,8.2249077 0 0 1 0.14453,0.19336 8.1203529,8.2249077 0 0 1 0.13672,0.19922 8.1203529,8.2249077 0 0 1 0.13281,0.20117 8.1203529,8.2249077 0 0 1 0.125,0.20508 8.1203529,8.2249077 0 0 1 0.12109,0.20899 8.1203529,8.2249077 0 0 1 0.11328,0.21289 8.1203529,8.2249077 0 0 1 0.10743,0.21484 8.1203529,8.2249077 0 0 1 0.10156,0.2207 8.1203529,8.2249077 0 0 1 0.0957,0.22071 8.1203529,8.2249077 0 0 1 0.0879,0.22461 8.1203529,8.2249077 0 0 1 0.082,0.22851 8.1203529,8.2249077 0 0 1 0.0762,0.22852 8.1203529,8.2249077 0 0 1 0.0684,0.23242 8.1203529,8.2249077 0 0 1 0.0606,0.23437 8.1203529,8.2249077 0 0 1 0.0566,0.23438 8.1203529,8.2249077 0 0 1 0.01,0.0469 h 0.20312 c 0.013,-0.41666 0.0195,-0.72916 0.0195,-0.9375 0,-3.42448 -0.87891,-6.08073 -2.63671,-7.96875 -1.75782,-1.88802 -4.02344,-2.83203 -6.79688,-2.83203 z"
           style="font-style:normal;font-variant:normal;font-weight:normal;font-stretch:normal;font-family:Arial;-inkscape-font-specification:Arial;fill:url(#linearGradient4725);fill-opacity:1;stroke-width:1"
           id="path4652" />
      </g>
      <ellipse
         ry="13.306672"
         rx="13.30277"
         cy="3888.3066"
         cx="2235.1736"
         id="path4727"
         style="fill:#000000;fill-opacity:1;fill-rule:nonzero;stroke:none;stroke-width:0.818128;stroke-linecap:round;stroke-linejoin:round;stroke-miterlimit:4;stroke-dasharray:none" />
    </g>
  </g>
</svg>
