<?xml version="1.0" encoding="UTF-8" standalone="no"?>
<svg
   xmlns:dc="http://purl.org/dc/elements/1.1/"
   xmlns:cc="http://creativecommons.org/ns#"
   xmlns:rdf="http://www.w3.org/1999/02/22-rdf-syntax-ns#"
   xmlns:svg="http://www.w3.org/2000/svg"
   xmlns="http://www.w3.org/2000/svg"
   xmlns:xlink="http://www.w3.org/1999/xlink"
   xmlns:sodipodi="http://sodipodi.sourceforge.net/DTD/sodipodi-0.dtd"
   xmlns:inkscape="http://www.inkscape.org/namespaces/inkscape"
   inkscape:version="1.0 (4035a4fb49, 2020-05-01)"
   sodipodi:docname="ilus-1.svg"
   version="1.1"
   viewBox="0 0 922.73 636.56"
   height="636.56"
   width="922.73"
   data-name="Layer 1"
   id="467947fa-27d7-490e-b249-4c178978e5af">
  <metadata
     id="metadata69">
    <rdf:RDF>
      <cc:Work
         rdf:about="">
        <dc:format>image/svg+xml</dc:format>
        <dc:type
           rdf:resource="http://purl.org/dc/dcmitype/StillImage" />
      </cc:Work>
    </rdf:RDF>
  </metadata>
  <sodipodi:namedview
     inkscape:current-layer="467947fa-27d7-490e-b249-4c178978e5af"
     inkscape:window-maximized="1"
     inkscape:window-y="-8"
     inkscape:window-x="-8"
     inkscape:cy="361.69309"
     inkscape:cx="483.94125"
     inkscape:zoom="0.59762387"
     showgrid="false"
     id="namedview67"
     inkscape:window-height="705"
     inkscape:window-width="1366"
     inkscape:pageshadow="2"
     inkscape:pageopacity="0"
     guidetolerance="10"
     gridtolerance="10"
     objecttolerance="10"
     borderopacity="1"
     bordercolor="#666666"
     pagecolor="#ffffff" />
  <defs
     id="defs23">
    <linearGradient
       gradientUnits="userSpaceOnUse"
       y2="138.69"
       x2="704.04"
       y1="628.14"
       x1="704.04"
       id="45afbd54-b407-40ea-92b0-12882817bda7">
      <stop
         id="stop2"
         stop-opacity="0.25"
         stop-color="gray"
         offset="0.01" />
      <stop
         id="stop4"
         stop-opacity="0.12"
         stop-color="gray"
         offset="0.54" />
      <stop
         id="stop6"
         stop-opacity="0.1"
         stop-color="gray"
         offset="1" />
    </linearGradient>
    <linearGradient
       xlink:href="#45afbd54-b407-40ea-92b0-12882817bda7"
       y2="29.48"
       x2="560.05"
       y1="462.46"
       x1="560.05"
       id="e8e8f626-00af-4efc-8879-fbc77fe37cf8" />
    <clipPath
       transform="translate(-144.57 -138.69)"
       id="bcd5146f-3d92-4c9f-afb7-626509c6e3b6">
      <rect
         id="rect10"
         fill="#fff"
         ry="8.85"
         rx="8.85"
         height="410.82"
         width="617.65"
         y="178.13"
         x="395.46" />
    </clipPath>
    <linearGradient
       xlink:href="#45afbd54-b407-40ea-92b0-12882817bda7"
       y2="205.28"
       x2="600"
       y1="694.72"
       x1="600"
       id="9ff4afcc-8271-4218-bae1-bdde23a0dee0" />
    <linearGradient
       xlink:href="#45afbd54-b407-40ea-92b0-12882817bda7"
       y2="96.07"
       x2="456.01"
       y1="529.04"
       x1="456.01"
       id="63303a72-ce25-48a0-9eb5-28046144d7fd" />
    <clipPath
       transform="translate(-144.57 -138.69)"
       id="9b7b7c1a-1bcc-416c-8281-7abc384c6518">
      <rect
         id="rect15"
         fill="#fff"
         ry="8.85"
         rx="8.85"
         height="410.82"
         width="617.65"
         y="244.72"
         x="291.42" />
    </clipPath>
    <linearGradient
       xlink:href="#45afbd54-b407-40ea-92b0-12882817bda7"
       y2="271.86"
       x2="495.96"
       y1="761.31"
       x1="495.96"
       id="adada4c0-4d5b-49fe-b408-38a4e0647e19" />
    <linearGradient
       xlink:href="#45afbd54-b407-40ea-92b0-12882817bda7"
       y2="162.65"
       x2="351.97"
       y1="595.63"
       x1="351.97"
       id="4eac682f-71a7-4b56-b98a-4885330464ac" />
    <clipPath
       transform="translate(-144.57 -138.69)"
       id="8bd20c1f-fb8b-47cf-b3aa-3f21002888f7">
      <rect
         id="rect20"
         fill="#fff"
         ry="8.85"
         rx="8.85"
         height="410.82"
         width="617.65"
         y="311.3"
         x="187.38" />
    </clipPath>
  </defs>
  <title
     id="title25">images</title>
  <path
     id="path27"
     fill="url(#45afbd54-b407-40ea-92b0-12882817bda7)"
     transform="translate(-144.57 -138.69)"
     d="M1055,612.72a15.34,15.34,0,0,1-15.26,15.42H368.34a15.34,15.34,0,0,1-15.26-15.42V154.11a15.34,15.34,0,0,1,15.26-15.42h671.4A15.34,15.34,0,0,1,1055,154.11" />
  <path
     id="path29"
     fill="#f5f5f5"
     transform="translate(-144.57 -138.69)"
     d="M1047.11,605.21a14.91,14.91,0,0,1-14.91,14.91H376.37a14.91,14.91,0,0,1-14.91-14.91V161.88A14.91,14.91,0,0,1,376.37,147H1032.2a14.91,14.91,0,0,1,14.91,14.91" />
  <rect
     fill="url(#e8e8f626-00af-4efc-8879-fbc77fe37cf8)"
     ry="8.85"
     rx="8.85"
     height="432.98"
     width="633.92"
     y="29.48"
     x="243.09"
     data-name="&lt;Rectangle&gt;"
     id="85922ada-b73f-4063-9eb0-e9bdf79b2cd7" />
  <rect
     id="rect32"
     fill="#fff"
     ry="8.85"
     rx="8.85"
     height="410.82"
     width="617.65"
     y="39.44"
     x="250.89" />
  <g
     style="fill:#f97f9b;fill-opacity:1"
     id="g36"
     clip-path="url(#bcd5146f-3d92-4c9f-afb7-626509c6e3b6)">
    <path
       style="fill:#f97f9b;fill-opacity:1"
       id="path34"
       fill="#6c63ff"
       transform="translate(-144.57 -138.69)"
       d="M361.11,585.18,533.55,387.59a34.33,34.33,0,0,1,48.57-3.17L630.41,427a34.33,34.33,0,0,0,44.8.54L822.79,303.51a34.33,34.33,0,0,1,47.49,3.19L1051.39,506a34.33,34.33,0,0,1,8.78,20l7,78.63A34.33,34.33,0,0,1,1033,642.08H387a34.33,34.33,0,0,1-34.31-33.29h0A34.33,34.33,0,0,1,361.11,585.18Z" />
  </g>
  <circle
     id="circle38"
     fill="#ff5252"
     r="38.25"
     cy="105.32"
     cx="325.27" />
  <path
     id="path40"
     fill="url(#9ff4afcc-8271-4218-bae1-bdde23a0dee0)"
     transform="translate(-144.57 -138.69)"
     d="M951,679.3a15.34,15.34,0,0,1-15.26,15.42H264.3A15.34,15.34,0,0,1,249,679.3V220.7a15.34,15.34,0,0,1,15.26-15.42H935.7A15.34,15.34,0,0,1,951,220.7" />
  <path
     id="path42"
     fill="#f5f5f5"
     transform="translate(-144.57 -138.69)"
     d="M943.07,671.8a14.91,14.91,0,0,1-14.91,14.91H272.33a14.91,14.91,0,0,1-14.91-14.91V228.46a14.91,14.91,0,0,1,14.91-14.91H928.16a14.91,14.91,0,0,1,14.91,14.91" />
  <rect
     fill="url(#63303a72-ce25-48a0-9eb5-28046144d7fd)"
     ry="8.85"
     rx="8.85"
     height="432.98"
     width="633.92"
     y="96.07"
     x="139.05"
     data-name="&lt;Rectangle&gt;"
     id="926a8b08-dcad-48fb-92d9-382001b338ce" />
  <rect
     id="rect45"
     fill="#fff"
     ry="8.85"
     rx="8.85"
     height="410.82"
     width="617.65"
     y="106.03"
     x="146.85" />
  <g
     style="fill:#f66b8e;fill-opacity:1"
     id="g49"
     clip-path="url(#9b7b7c1a-1bcc-416c-8281-7abc384c6518)">
    <path
       style="fill:#f66b8e;fill-opacity:1"
       id="path47"
       fill="#6c63ff"
       transform="translate(-144.57 -138.69)"
       d="M257.07,651.77,429.51,454.17A34.33,34.33,0,0,1,478.09,451l48.28,42.6a34.33,34.33,0,0,0,44.8.54L718.75,370.09a34.33,34.33,0,0,1,47.49,3.19l181.1,199.34a34.33,34.33,0,0,1,8.78,20l7,78.63a34.33,34.33,0,0,1-34.19,37.36h-646a34.33,34.33,0,0,1-34.31-33.29h0A34.33,34.33,0,0,1,257.07,651.77Z" />
  </g>
  <circle
     id="circle51"
     fill="#ff5252"
     r="38.25"
     cy="171.9"
     cx="221.23" />
  <path
     id="path53"
     fill="url(#adada4c0-4d5b-49fe-b408-38a4e0647e19)"
     transform="translate(-144.57 -138.69)"
     d="M846.92,745.89a15.34,15.34,0,0,1-15.26,15.42H160.26A15.34,15.34,0,0,1,145,745.89V287.28a15.34,15.34,0,0,1,15.26-15.42h671.4a15.34,15.34,0,0,1,15.26,15.42" />
  <path
     id="path55"
     fill="#fff"
     transform="translate(-144.57 -138.69)"
     d="M839,738.38a14.91,14.91,0,0,1-14.91,14.91H168.29a14.91,14.91,0,0,1-14.91-14.91V295a14.91,14.91,0,0,1,14.91-14.91H824.12A14.91,14.91,0,0,1,839,295" />
  <rect
     fill="url(#4eac682f-71a7-4b56-b98a-4885330464ac)"
     ry="8.85"
     rx="8.85"
     height="432.98"
     width="633.92"
     y="162.65"
     x="35.01"
     data-name="&lt;Rectangle&gt;"
     id="c6fe725a-3b03-4a96-90af-cfbd2676500a" />
  <rect
     id="rect58"
     fill="#fff"
     ry="8.85"
     rx="8.85"
     height="410.82"
     width="617.65"
     y="172.61"
     x="42.81" />
  <g
     style="fill:#f15c88;fill-opacity:1"
     id="g62"
     clip-path="url(#8bd20c1f-fb8b-47cf-b3aa-3f21002888f7)">
    <path
       style="fill:#f15c88;fill-opacity:1"
       id="path60"
       fill="#6c63ff"
       transform="translate(-144.57 -138.69)"
       d="M153,718.35,325.48,520.76A34.33,34.33,0,0,1,374,517.59l48.28,42.6a34.33,34.33,0,0,0,44.8.54L614.71,436.68a34.33,34.33,0,0,1,47.49,3.19l181.1,199.34a34.33,34.33,0,0,1,8.78,20l7,78.63a34.33,34.33,0,0,1-34.19,37.36h-646A34.33,34.33,0,0,1,144.58,742h0A34.33,34.33,0,0,1,153,718.35Z" />
  </g>
  <circle
     id="circle64"
     fill="#ff5252"
     r="38.25"
     cy="238.49"
     cx="117.19" />
</svg>
